<?xml version="1.0" standalone="no"?><!DOCTYPE svg PUBLIC "-//W3C//DTD SVG 1.1//EN" "http://www.w3.org/Graphics/SVG/1.1/DTD/svg11.dtd"><svg t="1591843866527" class="icon" viewBox="0 0 1024 1024" version="1.1" xmlns="http://www.w3.org/2000/svg" p-id="1471" xmlns:xlink="http://www.w3.org/1999/xlink" width="200" height="200"><defs><style type="text/css"></style></defs><path d="M910.222222 0H113.777778C45.511111 0 0 51.2 0 119.466667v597.333333c0 68.266667 45.511111 119.466667 113.777778 119.466667h347.022222v108.088889H312.888889c-17.066667 0-28.444444 11.377778-28.444445 28.444444v22.755556c0 17.066667 11.377778 28.444444 28.444445 28.444444h409.6c17.066667 0 28.444444-11.377778 28.444444-28.444444v-22.755556c0-17.066667-11.377778-28.444444-28.444444-28.444444h-147.911111v-108.088889H910.222222c62.577778 0 113.777778-51.2 113.777778-119.466667V119.466667C1024 51.2 978.488889 0 910.222222 0zM113.777778 113.777778h796.444444v403.911111H113.777778v-398.222222V113.777778z m796.444444 608.711111H113.777778v-91.022222h796.444444v91.022222z" p-id="1472"></path></svg>